<svg xmlns="http://www.w3.org/2000/svg" width="117.906" height="32.625" viewBox="0 0 117.906 32.625">
  <defs>
    <style>
      .cls-1 {
        fill: #fff;
        fill-rule: evenodd;
      }
    </style>
  </defs>
  <path class="cls-1" d="M75.288,35.4l-19.8,9.047,4.934,18.525,3.756-.455L63.141,50.866l1.234-.542L66.5,62.231l6.419-.778L71.782,48.6,73,48.061l2.341,13.1,6.493-.787-1.25-14.093,1.235-.543,2.561,14.327,6.419-.777V39.229Zm0.466,28.1,0.326,1.824L90.8,67.738V61.67L75.76,63.492H75.753Zm28.973-3.8v2.5h3.121a2.9,2.9,0,0,1-.385,1.446,2.571,2.571,0,0,1-1.122,1.009,4.056,4.056,0,0,1-1.784.357,3.371,3.371,0,0,1-3.3-2.164,6.456,6.456,0,0,1-.455-2.557,6.2,6.2,0,0,1,.466-2.535,3.591,3.591,0,0,1,1.3-1.592,3.5,3.5,0,0,1,1.968-.55,3.842,3.842,0,0,1,1.075.142,2.815,2.815,0,0,1,.868.412,2.617,2.617,0,0,1,.639.652,3.124,3.124,0,0,1,.409.878H111a5.342,5.342,0,0,0-.694-2.033,5.7,5.7,0,0,0-1.414-1.6,6.5,6.5,0,0,0-1.987-1.046,7.7,7.7,0,0,0-2.419-.368,7.565,7.565,0,0,0-2.806.514,6.545,6.545,0,0,0-2.278,1.5,6.906,6.906,0,0,0-1.525,2.415,9.034,9.034,0,0,0-.547,3.253,8.572,8.572,0,0,0,.909,4.072,6.452,6.452,0,0,0,2.533,2.641,8.077,8.077,0,0,0,7.185.167,5.685,5.685,0,0,0,2.342-2.182,6.513,6.513,0,0,0,.849-3.4V59.691h-6.418Zm43.111,8.072V52.842H158.2V55.6h-6.942v3.315h5.611V61.68h-5.611V65h6.957v2.761H147.837Zm20.417-10.542a1.772,1.772,0,0,0-.709-1.315,2.851,2.851,0,0,0-1.743-.47,3.393,3.393,0,0,0-1.255.2,1.732,1.732,0,0,0-.768.55,1.323,1.323,0,0,0-.266.791,1.2,1.2,0,0,0,.159.652,1.479,1.479,0,0,0,.48.484,3.4,3.4,0,0,0,.742.353,7.976,7.976,0,0,0,.931.259l1.329,0.306a9.384,9.384,0,0,1,1.894.608,5.511,5.511,0,0,1,1.444.925,3.748,3.748,0,0,1,.92,1.264,3.992,3.992,0,0,1,.321,1.639,4.056,4.056,0,0,1-.709,2.4,4.513,4.513,0,0,1-2.035,1.552,8.369,8.369,0,0,1-3.194.547,8.638,8.638,0,0,1-3.242-.557,4.633,4.633,0,0,1-2.149-1.676,5.03,5.03,0,0,1-.805-2.794h3.294a2.213,2.213,0,0,0,.413,1.227,2.241,2.241,0,0,0,1,.74,3.945,3.945,0,0,0,1.451.248,3.74,3.74,0,0,0,1.337-.215,2.008,2.008,0,0,0,.868-0.6,1.414,1.414,0,0,0,.314-0.886,1.2,1.2,0,0,0-.285-0.783,2.186,2.186,0,0,0-.831-0.557,8.445,8.445,0,0,0-1.381-.423l-1.617-.386a6.939,6.939,0,0,1-3.054-1.436A3.338,3.338,0,0,1,160,57.214a3.9,3.9,0,0,1,.746-2.4,4.956,4.956,0,0,1,2.071-1.6,7.456,7.456,0,0,1,3.01-.576,7.227,7.227,0,0,1,2.991.576,4.661,4.661,0,0,1,1.986,1.61,4.221,4.221,0,0,1,.724,2.4h-3.272ZM145.4,67.763h-3.383V56.419l-0.346,0-3.417,11.349h-3.379l-3.325-11.349-0.431,0V67.763h-3.383V52.842h5.749l2.9,10h0.352l2.9-10H145.4V67.763Zm-22.99,0h3.664l-5.079-14.921h-4.643l-5.086,14.921h3.671l0.988-3.272h5.5Zm-5.7-5.872,1.653-5.472h0.621l1.653,5.472h-3.927Zm55.857-7.472a0.8,0.8,0,0,1-.737-0.482,0.789,0.789,0,0,1,0-.613A0.79,0.79,0,0,1,172,53.073a0.8,0.8,0,0,1,.255-0.17,0.822,0.822,0,0,1,.621,0,0.825,0.825,0,0,1,.255.17,0.787,0.787,0,0,1,.171.251,0.789,0.789,0,0,1,0,.613,0.791,0.791,0,0,1-.171.251,0.814,0.814,0,0,1-.255.169A0.8,0.8,0,0,1,172.566,54.419Zm0-.215a0.571,0.571,0,0,0,.294-0.077,0.585,0.585,0,0,0,.21-0.207,0.573,0.573,0,0,0,0-.577,0.578,0.578,0,0,0-.211-0.207,0.591,0.591,0,0,0-.585,0,0.593,0.593,0,0,0-.211.207,0.573,0.573,0,0,0,0,.577,0.6,0.6,0,0,0,.211.207A0.567,0.567,0,0,0,172.566,54.2Zm-0.292-.219V53.258h0.356a0.31,0.31,0,0,1,.138.03,0.217,0.217,0,0,1,.094.084,0.264,0.264,0,0,1,0,.261,0.225,0.225,0,0,1-.1.082,0.333,0.333,0,0,1-.141.028h-0.239V53.6h0.2a0.1,0.1,0,0,0,.073-0.025,0.109,0.109,0,0,0,0-.146,0.112,0.112,0,0,0-.072-0.023h-0.111v0.581h-0.2Zm0.479-.333,0.163,0.333H172.7l-0.15-.333h0.208Zm-60.646-3.2h3.419V35.534h-3.419V50.456Zm19.655-7.461a8.491,8.491,0,0,1-.946,4.164,6.493,6.493,0,0,1-2.562,2.6,7.83,7.83,0,0,1-7.282,0,6.516,6.516,0,0,1-2.563-2.612,8.478,8.478,0,0,1-.945-4.153,8.492,8.492,0,0,1,.945-4.163,6.5,6.5,0,0,1,2.563-2.6,7.844,7.844,0,0,1,7.282,0,6.492,6.492,0,0,1,2.562,2.6,8.492,8.492,0,0,1,.946,4.163m-3.479,0a6.536,6.536,0,0,0-.447-2.568,3.466,3.466,0,0,0-6.443,0,7.537,7.537,0,0,0,0,5.136,3.464,3.464,0,0,0,6.443,0,6.535,6.535,0,0,0,.447-2.568m-23.359,2.259,1.756,5.2h3.752l-1.953-5.6h-2.653l-0.159-.482a5.584,5.584,0,0,0,2.136-.761,3.94,3.94,0,0,0,1.754-3.242h0a4.721,4.721,0,0,0-.654-2.522,4.339,4.339,0,0,0-1.876-1.709,6.591,6.591,0,0,0-2.935-.6h-6.1V50.456h3.419v-5.2h3.513Zm-0.064-3.087a3.943,3.943,0,0,1-1.455.233h-1.994V38.274H103.4a3.783,3.783,0,0,1,1.455.244,1.824,1.824,0,0,1,.882.732,1.953,1.953,0,0,1,.3,1.116,1.886,1.886,0,0,1-.3,1.1,1.778,1.778,0,0,1-.879.7m27.225-6.632v2.761h5.875l0.159,0.483a5.658,5.658,0,0,0-2.091.733V50.451H139.4V38.295h3.935V35.534H132.085Z" transform="translate(-55.469 -35.344)"/>
</svg>
