<svg xmlns="http://www.w3.org/2000/svg" width="52.25" height="52.03" viewBox="0 0 52.25 52.03">
  <defs>
    <style>
      .cls-1 {
        fill: #96dbff;
        fill-rule: evenodd;
      }
    </style>
  </defs>
  <path class="cls-1" d="M145.576,2311.78l0.6,2.68,0-3.04-0.538.33Zm0.591-.36,0,3.04,0.011,0.05c4.756-4.72,7.783.01,7.783,0.01,16.277-11.39,4.421-32.51,4.421-32.51s-0.392,9.35-8.23,15.15l0,8.97C150.161,2308.53,148.13,2310.2,146.167,2311.42Zm-27.257,3.1s2.221-3.5,5.867-1.47l-4.243-6.17,3.656-8.74c-9.258-5.65-9.7-16.13-9.7-16.13S102.633,2303.13,118.91,2314.52Zm5.041,11.85,3.035-10.11-0.165-.24-7.075,7.12a9.125,9.125,0,0,1-6.37,2.8l-2.545.06-0.511,1.32,6.589,6.23Zm35.549,0.04a9.087,9.087,0,0,1-6.371-2.8l-6.342-6.38,2.137,9.61,7.043,7.18,6.589-6.23-0.511-1.32Zm-19.832-22.46c-0.043.16-.093,0.31-0.149,0.46,0.126,0.01.244,0.01,0.354,0.02,3.2,0.2,4.21,1.45,4.955,4.14a10.364,10.364,0,0,0,1.333-1.02,2.193,2.193,0,0,0,.866-1.42l0-9.99a1.057,1.057,0,0,0-.868-1.04l-17.055-3.19a1.847,1.847,0,0,0-.233-0.02,1.242,1.242,0,0,0-1.243,1.24v3.7l13.519,1.87Zm2.333,6.19c-0.648-2.83-.782-2.45-3.07-2.65l-7.494-.65v-2.08h3.038a2.256,2.256,0,0,0,2.175-1.64l0.51-1.82-10.3-1.43-2.779,6.64,6.335,9.21-3.021,10.07,9.042,8.23,9.042-8.23S142.042,2310.32,142,2310.14Zm-2.959-22.55-2.6-5.58-2.6,5.58,2.6,2.06Zm8.12,1.57,1.488-5.98-5.545,2.73,0.731,3.23Zm-20.081-.01,1.959-.01,0.081-.36,0.65-2.87-5.545-2.73,1.488,5.98Z" transform="translate(-110.312 -2282)"/>
</svg>
