<svg xmlns="http://www.w3.org/2000/svg" width="52.375" height="52.37" viewBox="0 0 52.375 52.37">
  <defs>
    <style>
      .cls-1 {
        fill: #96dbff;
        fill-rule: evenodd;
      }
    </style>
  </defs>
  <path class="cls-1" d="M143.159,2309.85a10.154,10.154,0,0,0,2.04-2.32c-0.434-.06-0.876-0.12-1.329-0.17m-18.793-11.98,3.847-.02,0.942-3.73-7.3-4.38Zm23.291-.01,2.47-8.14-7.275,4.41,0.959,3.73h3.846Zm-0.018,4.55a62.513,62.513,0,0,1-6.613-2.13l-5.023,5.84h0l-5.023-5.84a62.513,62.513,0,0,1-6.613,2.13c-4.225,0-2.636-3.91-2.636-3.91s-10.727,11.04-11.909,19.58c0,0,3.11-4.83,13.347-7.26a14.365,14.365,0,0,0,7.628,7.07c-0.328-1.74-.736-3.63-1.237-5.55a10.134,10.134,0,0,1-2.041-2.32c0.433-.06,3.974-0.37,4.41-0.4,0.444,1.49,2.5,15.71,2.5,15.71l-3.832,5.61v5.57l5.4-2.23,5.4,2.23v-5.57l-3.832-5.61s2.06-14.22,2.5-15.71c0.436,0.03,3.977.34,4.411,0.4a10.154,10.154,0,0,1-2.04,2.32c-0.5,1.92-.909,3.81-1.237,5.55a14.361,14.361,0,0,0,7.626-7.07c10.237,2.43,13.347,7.26,13.347,7.26-1.182-8.54-11.909-19.58-11.909-19.58S152.576,2299.92,148.35,2299.92Zm-15.78-6.65,0.031,0.04,4.113,5.41h0l4.113-5.41,0.031-.04-4.144-11.61Z" transform="translate(-110.531 -2281.66)"/>
</svg>
