<svg xmlns="http://www.w3.org/2000/svg" width="79.531" height="56.09" viewBox="0 0 79.531 56.09">
  <defs>
    <style>
      .cls-1 {
        fill: #96dbff;
      }

      .cls-1, .cls-2 {
        fill-rule: evenodd;
      }

      .cls-2 {
        fill: none;
        stroke: #96dbff;
        stroke-width: 1px;
      }
    </style>
  </defs>
  <path class="cls-1" d="M175.836,2331.26h4.99l-1.432-4.88h-3.558a13.636,13.636,0,0,0-10.292,4.7l-2.627,3.03-2.627-3.03a13.636,13.636,0,0,0-10.292-4.7H146.44l-1.433,4.88H150a13.6,13.6,0,0,1,10.292,4.7l0.24,0.28h-3.4v2.75H168.7v-2.75h-3.4l0.241-.28A13.6,13.6,0,0,1,175.836,2331.26Zm-15.72-18.1-2.965,4.71a4.918,4.918,0,0,0,.3,5.67l5.458,6.92,5.458-6.92a4.918,4.918,0,0,0,.3-5.67l-5.76-9.15-0.191.3a2.039,2.039,0,0,1-1.626.6c-1.509,0-2.679-3.2,1.661-6.45,0,0-10.787,2.08-5.551,11.37Zm5.125,9.51-2.33,2.96-2.33-2.96a2.1,2.1,0,0,1-.129-2.42l2.459-3.9,2.459,3.9A2.1,2.1,0,0,1,165.241,2322.67Z" transform="translate(-101.281 -2282.91)"/>
  <path class="cls-1" d="M119.269,2306.48l0.57-.95c1.853-3.07,1.837-5.3,1.289-6.81a13.214,13.214,0,0,1-2.989,5.25,0.717,0.717,0,0,1-.548.24h-1.1a0.717,0.717,0,0,1-.548-0.24,13.194,13.194,0,0,1-2.987-5.24c-0.544,1.51-.555,3.74,1.293,6.8l0.573,0.95-1.086,1.93h-0.006l3.309,5.85,3.309-5.85h0Zm5.415-11.51a9.645,9.645,0,0,1-2-6.2c0-1.35-1.194-2.7-2.544-3.97-1.5-1.4-1.857-1.89-3.092-1.9h-0.007c-1.236.01-1.588,0.5-3.092,1.9-1.351,1.27-2.544,2.62-2.544,3.97a9.593,9.593,0,0,1-1.98,6.17l-4.678,4.7-3.472-2.39v4.27s0.078,8.32,12.289,12.91c0,0-4.624-2.35-5.376-10.27-0.053-.56-0.085-3.02-0.048-3.41a39.2,39.2,0,0,0,4.494,5.77s0-.01,0-0.01c-0.261-.43-0.484-0.85-0.685-1.26-1.69-3.43-1.351-6-.518-7.75a7.3,7.3,0,0,1,2.457-2.89l3.155,3.14v0.01h0.007v-0.01l3.154-3.14a7.293,7.293,0,0,1,2.458,2.89c0.823,1.73,1.167,4.26-.461,7.64-0.213.44-.457,0.9-0.742,1.37a0.008,0.008,0,0,0,0,.01,39.673,39.673,0,0,0,4.481-5.75c0.035,0.38,0,2.86-.054,3.41-0.761,7.9-5.373,10.24-5.373,10.24,12.211-4.59,12.289-12.91,12.289-12.91v-4.27l-3.472,2.39Z" transform="translate(-101.281 -2282.91)"/>
  <path class="cls-2" d="M115.479,2331.87l42.224-37.08" transform="translate(-101.281 -2282.91)"/>
</svg>
