<svg xmlns="http://www.w3.org/2000/svg" width="78.531" height="52.06" viewBox="0 0 78.531 52.06">
  <defs>
    <style>
      .cls-1 {
        fill: #96dbff;
      }

      .cls-1, .cls-2 {
        fill-rule: evenodd;
      }

      .cls-2 {
        fill: none;
        stroke: #96dbff;
        stroke-width: 1px;
      }
    </style>
  </defs>
  <path class="cls-1" d="M174.913,2330.72h4.893l-1.405-4.78h-3.488a13.342,13.342,0,0,0-10.09,4.61l-2.576,2.97-2.575-2.97a13.343,13.343,0,0,0-10.091-4.61h-3.488l-1.4,4.78h4.892a13.343,13.343,0,0,1,10.091,4.61l0.236,0.27h-3.33v2.7h11.339v-2.7h-3.33l0.236-.27A13.342,13.342,0,0,1,174.913,2330.72ZM159.5,2312.97l-2.907,4.62a4.839,4.839,0,0,0,.3,5.57l5.351,6.78,5.351-6.78a4.839,4.839,0,0,0,.3-5.57l-5.647-8.97-0.187.3a1.984,1.984,0,0,1-1.594.59c-1.48,0-2.628-3.14,1.628-6.33,0,0-10.576,2.05-5.442,11.15Zm5.024,9.34-2.284,2.89-2.285-2.89a2.07,2.07,0,0,1-.126-2.38l2.411-3.83,2.411,3.83A2.069,2.069,0,0,1,164.526,2322.31Z" transform="translate(-101.281 -2286.25)"/>
  <path class="cls-1" d="M130.658,2286.24c0,9.02-8.438,12.13-8.438,12.13l-1.362,7.42a2.271,2.271,0,0,0-.147.8,2.309,2.309,0,1,0,2.7-2.26c2.276-3.82,5.448-1.96,5.448-1.96,0.468-.47.888-0.93,1.269-1.39l-2.371-.98h3.13a12.969,12.969,0,0,0,1.9-3.77l-3.163-1.3h3.47A11.025,11.025,0,0,0,130.658,2286.24ZM112.3,2298.37s-8.438-3.11-8.438-12.13a11.027,11.027,0,0,0-2.439,8.69h3.47l-3.163,1.3a12.6,12.6,0,0,0,1.362,2.97h3.668l-2.854,1.17a19.639,19.639,0,0,0,1.752,2s3.173-1.86,5.448,1.96a2.3,2.3,0,1,0,2.557,1.46Zm5.917,3.11,3.328-8.44-2.285-5.31h-4l-2.286,5.31,3.328,8.44v7.9l-1.649,5.35,1.649,3.31h1.917l1.65-3.31-1.65-5.35v-7.9Zm-2.65-8.39,0.9-2.28h1.579l0.9,2.28-1.691,4.67Z" transform="translate(-101.281 -2286.25)"/>
  <path class="cls-2" d="M115.738,2331.32l41.4-36.35" transform="translate(-101.281 -2286.25)"/>
</svg>
