<svg xmlns="http://www.w3.org/2000/svg" width="72.594" height="56.12" viewBox="0 0 72.594 56.12">
  <defs>
    <style>
      .cls-1 {
        fill: #96dbff;
      }

      .cls-1, .cls-2 {
        fill-rule: evenodd;
      }

      .cls-2 {
        fill: none;
        stroke: #96dbff;
        stroke-width: 1px;
      }
    </style>
  </defs>
  <path class="cls-1" d="M120.813,2298.98l0.346,1.56,0-1.76c-0.105.06-.209,0.12-0.313,0.19C120.833,2298.97,120.823,2298.98,120.813,2298.98Zm0.343-.2,0,1.76,0.007,0.03c2.764-2.74,4.524.01,4.524,0.01,9.461-6.61,2.57-18.88,2.57-18.88a12.5,12.5,0,0,1-4.784,8.8l0,5.21C123.478,2297.1,122.3,2298.07,121.156,2298.78Zm-15.844,1.8a2.538,2.538,0,0,1,3.41-.86l-2.466-3.58,2.125-5.07a12.379,12.379,0,0,1-5.639-9.37S95.85,2293.97,105.312,2300.58Zm2.93,6.87,1.764-5.87-0.1-.14-4.112,4.14a5.284,5.284,0,0,1-3.7,1.62l-1.479.04-0.3.76,3.83,3.62Zm20.665,0.03a5.294,5.294,0,0,1-3.7-1.63l-3.686-3.7,1.241,5.58,4.095,4.17,3.83-3.62-0.3-.77Zm-11.529-13.04c-0.025.09-.054,0.18-0.086,0.27a1.347,1.347,0,0,1,.2.01c1.86,0.11,2.448.84,2.881,2.4a6.205,6.205,0,0,0,.775-0.59,1.27,1.27,0,0,0,.5-0.82l0-5.8a0.623,0.623,0,0,0-.5-0.61l-9.914-1.85a0.619,0.619,0,0,0-.135-0.01,0.719,0.719,0,0,0-.723.72v2.14l7.859,1.09Zm1.356,3.59c-0.376-1.64-.454-1.42-1.784-1.53l-4.356-.38v-1.21h1.766a1.313,1.313,0,0,0,1.264-.95l0.3-1.06-5.987-.83-1.615,3.86,3.683,5.34-1.757,5.85,5.257,4.78,5.256-4.78S118.758,2298.14,118.734,2298.03Zm-1.72-13.08-1.513-3.25-1.514,3.25,1.514,1.19Zm4.72,0.91,0.866-3.47-3.224,1.58,0.425,1.87Zm-11.672-.01,1.138-.01,0.047-.21,0.378-1.66-3.223-1.58,0.865,3.47Z" transform="translate(-100.312 -2281.69)"/>
  <path class="cls-1" d="M160.2,2322.27a6.406,6.406,0,0,0,1.314-1.49c-0.279-.04-0.564-0.08-0.856-0.11m-12.111-7.71,2.479-.02,0.607-2.4-4.7-2.82Zm15.01,0,1.592-5.25-4.689,2.84,0.618,2.4Zm-0.012,2.92a40.359,40.359,0,0,1-4.261-1.37l-3.238,3.76h0l-3.237-3.76a40.309,40.309,0,0,1-4.262,1.37c-2.723,0-1.7-2.52-1.7-2.52s-6.913,7.11-7.675,12.61c0,0,2-3.11,8.6-4.68a9.239,9.239,0,0,0,4.916,4.55c-0.211-1.11-.474-2.33-0.8-3.57a6.415,6.415,0,0,1-1.316-1.49c0.28-.04,2.562-0.24,2.843-0.26,0.286,0.96,1.614,10.11,1.614,10.11l-2.47,3.61v3.59l3.481-1.44,3.482,1.44v-3.59l-2.47-3.61s1.328-9.15,1.614-10.11c0.281,0.02,2.563.22,2.842,0.26a6.406,6.406,0,0,1-1.314,1.49c-0.323,1.23-.586,2.45-0.8,3.57a9.241,9.241,0,0,0,4.915-4.55c6.6,1.57,8.6,4.68,8.6,4.68-0.762-5.5-7.675-12.61-7.675-12.61S166.265,2315.88,163.541,2315.88Zm-10.169-4.28,0.019,0.03,2.651,3.48h0l2.651-3.48,0.02-.03-2.671-7.47Z" transform="translate(-100.312 -2281.69)"/>
  <path class="cls-2" d="M115.135,2332.14l41.353-36.26" transform="translate(-100.312 -2281.69)"/>
</svg>
