<svg xmlns="http://www.w3.org/2000/svg" width="33.75" height="33.69" viewBox="0 0 33.75 33.69">
  <defs>
    <style>
      .cls-1 {
        fill: #96dbff;
        fill-rule: evenodd;
      }
    </style>
  </defs>
  <path class="cls-1" d="M160.2,2322.27a6.406,6.406,0,0,0,1.314-1.49c-0.279-.04-0.564-0.08-0.856-0.11m-12.111-7.71,2.479-.02,0.607-2.4-4.7-2.82Zm15.01,0,1.592-5.25-4.689,2.84,0.618,2.4Zm-0.012,2.92a40.359,40.359,0,0,1-4.261-1.37l-3.238,3.76h0l-3.237-3.76a40.309,40.309,0,0,1-4.262,1.37c-2.723,0-1.7-2.52-1.7-2.52s-6.913,7.11-7.675,12.61c0,0,2-3.11,8.6-4.68a9.239,9.239,0,0,0,4.916,4.55c-0.211-1.11-.474-2.33-0.8-3.57a6.415,6.415,0,0,1-1.316-1.49c0.28-.04,2.562-0.24,2.843-0.26,0.286,0.96,1.614,10.11,1.614,10.11l-2.47,3.61v3.59l3.481-1.44,3.482,1.44v-3.59l-2.47-3.61s1.328-9.15,1.614-10.11c0.281,0.02,2.563.22,2.842,0.26a6.406,6.406,0,0,1-1.314,1.49c-0.323,1.23-.586,2.45-0.8,3.57a9.241,9.241,0,0,0,4.915-4.55c6.6,1.57,8.6,4.68,8.6,4.68-0.762-5.5-7.675-12.61-7.675-12.61S166.265,2315.88,163.541,2315.88Zm-10.169-4.28,0.019,0.03,2.651,3.48h0l2.651-3.48,0.02-.03-2.671-7.47Z" transform="translate(-139.156 -2304.12)"/>
</svg>
