<svg xmlns="http://www.w3.org/2000/svg" width="70.062" height="54.75" viewBox="0 0 70.062 54.75">
  <defs>
    <style>
      .cls-1 {
        fill: #96dbff;
      }

      .cls-1, .cls-2 {
        fill-rule: evenodd;
      }

      .cls-2 {
        fill: none;
        stroke: #96dbff;
        stroke-width: 1px;
      }
    </style>
  </defs>
  <path class="cls-1" d="M122.34,2299.2l0.344,1.55,0-1.76c-0.1.07-.208,0.13-0.31,0.19C122.361,2299.19,122.351,2299.19,122.34,2299.2Zm0.341-.21,0,1.76,0.006,0.03c2.742-2.73,4.488,0,4.488,0,9.384-6.57,2.548-18.77,2.548-18.77a12.415,12.415,0,0,1-4.744,8.74l0,5.19C124.984,2297.32,123.813,2298.29,122.681,2298.99Zm-15.715,1.79a2.509,2.509,0,0,1,3.383-.85l-2.446-3.56,2.107-5.05a12.307,12.307,0,0,1-5.593-9.31S97.582,2294.21,106.966,2300.78Zm2.907,6.84,1.749-5.83-0.095-.14-4.078,4.11a5.262,5.262,0,0,1-3.673,1.62l-1.467.03-0.3.76,3.8,3.6Zm20.495,0.03a5.22,5.22,0,0,1-3.673-1.62l-3.656-3.68,1.231,5.55,4.061,4.14,3.8-3.59-0.295-.77Zm-11.434-12.97a2.33,2.33,0,0,1-.086.26c0.073,0.01.141,0.01,0.2,0.02,1.844,0.11,2.428.83,2.857,2.39a6.2,6.2,0,0,0,.769-0.59,1.274,1.274,0,0,0,.5-0.82l0-5.77a0.6,0.6,0,0,0-.5-0.6l-9.833-1.84a0.63,0.63,0,0,0-.134-0.02,0.723,0.723,0,0,0-.717.72v2.13l7.794,1.08Zm1.345,3.57c-0.373-1.63-.451-1.41-1.77-1.53l-4.32-.37v-1.2h1.751a1.3,1.3,0,0,0,1.254-.95l0.294-1.05-5.938-.83-1.6,3.84,3.653,5.32-1.742,5.81,5.213,4.75,5.213-4.75S120.3,2298.36,120.279,2298.25Zm-1.706-13.02-1.5-3.22-1.5,3.22,1.5,1.19Zm4.682,0.91,0.858-3.45-3.2,1.57,0.421,1.86Zm-11.578-.01,1.13-.01,0.047-.2,0.374-1.66-3.2-1.57,0.858,3.45Z" transform="translate(-102 -2282)"/>
  <path class="cls-1" d="M158.918,2329l0.554-.92c1.8-2.99,1.784-5.16,1.252-6.63a12.779,12.779,0,0,1-2.9,5.11,0.687,0.687,0,0,1-.532.24h-1.065a0.69,0.69,0,0,1-.532-0.24,12.826,12.826,0,0,1-2.9-5.1c-0.528,1.47-.54,3.64,1.256,6.62l0.557,0.93-1.055,1.87h-0.007l3.215,5.69,3.214-5.69h0Zm5.26-11.2a9.359,9.359,0,0,1-1.941-6.03c0-1.31-1.16-2.63-2.471-3.86-1.461-1.36-1.8-1.84-3-1.84v-0.01h-0.006v0.01c-1.2,0-1.543.48-3,1.84-1.312,1.23-2.471,2.55-2.471,3.86a9.387,9.387,0,0,1-1.923,6.01l-4.544,4.57-3.372-2.33v4.16s0.075,8.1,11.937,12.56c0,0-4.493-2.29-5.223-9.99-0.051-.54-0.082-2.94-0.046-3.32a38.454,38.454,0,0,0,4.365,5.61s0,0,0-.01c-0.253-.42-0.47-0.82-0.665-1.22-1.642-3.34-1.313-5.84-.5-7.54a7.058,7.058,0,0,1,2.387-2.81l3.065,3.06h0.006l3.065-3.06a7.052,7.052,0,0,1,2.386,2.81c0.8,1.68,1.134,4.14-.447,7.43-0.207.43-.444,0.87-0.721,1.33,0,0.01,0,.01,0,0.01a38.361,38.361,0,0,0,4.353-5.59c0.034,0.37,0,2.78-.053,3.32-0.739,7.68-5.219,9.96-5.219,9.96,11.861-4.46,11.937-12.56,11.937-12.56v-4.16l-3.372,2.33Z" transform="translate(-102 -2282)"/>
  <path class="cls-2" d="M116.709,2332.18l41.015-36.07" transform="translate(-102 -2282)"/>
</svg>
