<svg xmlns="http://www.w3.org/2000/svg" width="57.531" height="57.53" viewBox="0 0 57.531 57.53">
  <defs>
    <style>
      .cls-1 {
        fill: #96dbff;
        fill-rule: evenodd;
      }
    </style>
  </defs>
  <path class="cls-1" d="M156.245,2324.11h8.016l-2.3-7.83h-5.714a21.857,21.857,0,0,0-16.53,7.55l-4.219,4.87-4.219-4.87a21.855,21.855,0,0,0-16.53-7.55h-5.714l-2.3,7.83h8.015a21.89,21.89,0,0,1,16.53,7.55l0.386,0.45h-5.454v4.42h18.575v-4.42h-5.455l0.386-.45A21.891,21.891,0,0,1,156.245,2324.11ZM131,2295.04l-4.762,7.56a7.919,7.919,0,0,0,.485,9.12l8.766,11.11,8.767-11.11a7.92,7.92,0,0,0,.484-9.12l-9.251-14.7-0.306.49a3.236,3.236,0,0,1-2.612.97c-2.424,0-4.3-5.15,2.667-10.36,0,0-17.324,3.34-8.915,18.26Zm8.232,15.29-3.743,4.74-3.742-4.74a3.391,3.391,0,0,1-.207-3.9l3.949-6.27,3.95,6.27A3.393,3.393,0,0,1,139.23,2310.33Z" transform="translate(-106.719 -2279)"/>
</svg>
